<svg width="175" height="71" viewBox="0 0 175 71" fill="none" xmlns="http://www.w3.org/2000/svg">
<path d="M0.121422 69.3802L2.27667 64.4633C2.42845 64.1253 2.70165 63.9102 3.06591 63.9102H3.15698C3.52125 63.9102 3.79445 64.1253 3.94622 64.4633L6.10147 69.3802C6.13183 69.4724 6.16218 69.5646 6.16218 69.6568C6.16218 70.0256 5.88898 70.3329 5.52471 70.3329C5.22116 70.3329 5.00867 70.1485 4.85689 69.8719L4.43191 68.8885H1.69991L1.27493 69.9334C1.15351 70.2099 0.941023 70.3636 0.637467 70.3636C0.2732 70.3636 0 70.087 0 69.7183C0.0303556 69.5953 0.0607111 69.5031 0.121422 69.3802ZM3.94622 67.6593L3.09627 65.6003L2.24631 67.6593H3.94622Z" fill="#0F173A"/>
<path d="M7.13359 64.8931C7.10323 64.8009 7.07288 64.7087 7.07288 64.6472C7.07288 64.2477 7.37643 63.9712 7.77105 63.9712C8.07461 63.9712 8.34781 64.1863 8.43888 64.4628L9.68345 68.3042L10.928 64.4936C11.0191 64.1863 11.2619 63.9404 11.6262 63.9404H11.7173C12.0512 63.9404 12.294 64.1555 12.4155 64.4936L13.66 68.3042L14.9046 64.4628C14.9957 64.1863 15.2082 63.9712 15.5724 63.9712C15.9367 63.9712 16.2403 64.2477 16.2403 64.6472C16.2403 64.7394 16.2099 64.8316 16.1795 64.9238L14.4493 69.8407C14.3279 70.1787 14.0547 70.3938 13.7511 70.3938H13.5993C13.2654 70.3938 13.0226 70.1787 12.9011 69.8407L11.6869 66.2452L10.4727 69.8407C10.3513 70.2095 10.1084 70.3938 9.77452 70.3938H9.62274C9.28883 70.3938 9.04599 70.1787 8.92457 69.8407L7.13359 64.8931Z" fill="#0F173A"/>
<path d="M17.1508 69.3797L19.3061 64.4321C19.4579 64.094 19.7311 63.8789 20.0953 63.8789H20.1864C20.5507 63.8789 20.8239 64.094 20.9756 64.4321L23.1309 69.3797C23.1612 69.4719 23.1916 69.5641 23.1916 69.6563C23.1916 70.025 22.9184 70.3323 22.5541 70.3323C22.2506 70.3323 22.0381 70.148 21.8863 69.8714L21.4613 68.888H18.7293L18.3044 69.9328C18.1829 70.2094 17.9704 70.3631 17.6669 70.3631C17.3026 70.3631 17.0294 70.0865 17.0294 69.7177C17.0901 69.5948 17.1205 69.5026 17.1508 69.3797ZM21.006 67.6588L20.156 65.5998L19.3061 67.6588H21.006Z" fill="#0F173A"/>
<path d="M25.1039 64.6472C25.1039 64.2477 25.4074 63.9712 25.7717 63.9712C26.136 63.9712 26.4395 64.2785 26.4395 64.6472V66.7369L28.959 64.217C29.1412 64.0326 29.2929 63.9404 29.5358 63.9404C29.9304 63.9404 30.1733 64.2477 30.1733 64.5858C30.1733 64.8009 30.0822 64.9545 29.9304 65.1082L28.2001 66.7676L30.1125 69.1954C30.2036 69.3183 30.2947 69.4719 30.2947 69.687C30.2947 70.0865 29.9911 70.3631 29.5965 70.3631C29.3233 70.3631 29.1715 70.2402 29.0197 70.0251L27.2591 67.6896L26.4699 68.4271V69.687C26.4699 70.0865 26.1663 70.3631 25.8021 70.3631C25.4378 70.3631 25.1342 70.0558 25.1342 69.687V64.6472H25.1039Z" fill="#0F173A"/>
<path d="M32.2069 69.5949V64.7088C32.2069 64.3093 32.5105 64.0327 32.8747 64.0327H36.3049C36.6388 64.0327 36.912 64.3093 36.912 64.6473C36.912 64.9854 36.6388 65.2619 36.3049 65.2619H33.5426V66.5219H35.9103C36.2442 66.5219 36.5174 66.7985 36.5174 67.1365C36.5174 67.4745 36.2442 67.7511 35.9103 67.7511H33.5426V69.0725H36.3353C36.6692 69.0725 36.9424 69.3491 36.9424 69.6871C36.9424 70.0252 36.6692 70.3017 36.3353 70.3017H32.8444C32.5105 70.271 32.2069 69.9637 32.2069 69.5949Z" fill="#0F173A"/>
<path d="M38.946 64.678C38.946 64.2785 39.2496 64.002 39.6139 64.002H39.7656C40.0996 64.002 40.2817 64.1556 40.4638 64.4015L43.1048 67.9047V64.678C43.1048 64.3093 43.4083 64.002 43.7726 64.002C44.1369 64.002 44.4404 64.3093 44.4404 64.678V69.6564C44.4404 70.0559 44.1369 70.3325 43.7726 70.3325H43.7422C43.4083 70.3325 43.2262 70.1788 43.044 69.933L40.312 66.3068V69.6564C40.312 70.0252 40.0085 70.3325 39.6442 70.3325C39.28 70.3325 38.9764 70.0252 38.9764 69.6564V64.678H38.946Z" fill="#0F173A"/>
<path d="M46.8085 64.6478C46.8085 64.2483 47.112 63.9717 47.4763 63.9717C47.8709 63.9717 48.1441 64.279 48.1441 64.6478V69.6569C48.1441 70.0564 47.8406 70.3329 47.4763 70.3329C47.0817 70.3329 46.8085 70.0256 46.8085 69.6569V64.6478Z" fill="#0F173A"/>
<path d="M50.5421 64.678C50.5421 64.2785 50.8457 64.002 51.2099 64.002H51.3617C51.6956 64.002 51.8778 64.1556 52.0599 64.4015L54.7008 67.9047V64.678C54.7008 64.3093 55.0044 64.002 55.3687 64.002C55.7329 64.002 56.0365 64.3093 56.0365 64.678V69.6564C56.0365 70.0559 55.7329 70.3325 55.3687 70.3325H55.3383C55.0044 70.3325 54.8223 70.1788 54.6401 69.933L51.9081 66.3068V69.6564C51.9081 70.0252 51.6046 70.3325 51.2403 70.3325C50.876 70.3325 50.5725 70.0252 50.5725 69.6564V64.678H50.5421Z" fill="#0F173A"/>
<path d="M58.0702 67.1676C58.0702 65.3545 59.4362 63.9102 61.3182 63.9102C62.2593 63.9102 62.8664 64.1253 63.4431 64.5248C63.5645 64.617 63.7163 64.8013 63.7163 65.0779C63.7163 65.4467 63.4128 65.754 63.0485 65.754C62.8664 65.754 62.7449 65.6925 62.6235 65.6003C62.2593 65.3238 61.8646 65.1701 61.2575 65.1701C60.2558 65.1701 59.4665 66.0613 59.4665 67.1369V67.1676C59.4665 68.3046 60.2558 69.1651 61.3486 69.1651C61.8343 69.1651 62.2896 69.0422 62.6235 68.7963V67.9051H61.7129C61.3789 67.9051 61.1057 67.6593 61.1057 67.3213C61.1057 66.9832 61.3789 66.7066 61.7129 66.7066H63.261C63.6556 66.7066 63.9288 67.014 63.9288 67.3827V68.9193C63.9288 69.3188 63.777 69.5953 63.4431 69.8104C62.9271 70.1177 62.1986 70.4251 61.2879 70.4251C59.4058 70.3943 58.0702 69.0114 58.0702 67.1676Z" fill="#0F173A"/>
<path d="M71.0017 65.2926H69.6964C69.3625 65.2926 69.059 65.0161 69.059 64.6473C69.059 64.3093 69.3322 64.002 69.6964 64.002H73.673C74.0069 64.002 74.3105 64.2785 74.3105 64.6473C74.3105 64.9853 74.0373 65.2926 73.673 65.2926H72.3677V69.6564C72.3677 70.0559 72.0642 70.3325 71.6999 70.3325C71.3053 70.3325 71.0321 70.0252 71.0321 69.6564V65.2926H71.0017Z" fill="#0F173A"/>
<path d="M76.1017 64.6478C76.1017 64.2483 76.4052 63.9717 76.7695 63.9717C77.1641 63.9717 77.4373 64.279 77.4373 64.6478V66.4916H79.9568V64.6478C79.9568 64.2483 80.2604 63.9717 80.6247 63.9717C80.9889 63.9717 81.2925 64.279 81.2925 64.6478V69.6569C81.2925 70.0564 80.9889 70.3329 80.6247 70.3329C80.2604 70.3329 79.9568 70.0256 79.9568 69.6569V67.7823H77.4373V69.6569C77.4373 70.0564 77.1338 70.3329 76.7695 70.3329C76.3749 70.3329 76.1017 70.0256 76.1017 69.6569V64.6478Z" fill="#0F173A"/>
<path d="M83.6298 69.5949V64.7088C83.6298 64.3093 83.9333 64.0327 84.2976 64.0327H87.7581C88.092 64.0327 88.3652 64.3093 88.3652 64.6473C88.3652 64.9854 88.092 65.2619 87.7581 65.2619H84.9958V66.5219H87.3635C87.6974 66.5219 87.9706 66.7985 87.9706 67.1365C87.9706 67.4745 87.6974 67.7511 87.3635 67.7511H84.9958V69.0725H87.7885C88.1224 69.0725 88.3956 69.3491 88.3956 69.6871C88.3956 70.0252 88.1224 70.3017 87.7885 70.3017H84.2976C83.9333 70.271 83.6298 69.9637 83.6298 69.5949Z" fill="#0F173A"/>
<path d="M93.5863 67.1676C93.5863 65.3545 94.9523 63.9102 96.8343 63.9102C97.7754 63.9102 98.3825 64.1253 98.9592 64.5248C99.0806 64.617 99.2324 64.8013 99.2324 65.0779C99.2324 65.4467 98.9289 65.754 98.5646 65.754C98.3825 65.754 98.2611 65.6925 98.1396 65.6003C97.7754 65.3238 97.3807 65.1701 96.7736 65.1701C95.7719 65.1701 94.9827 66.0613 94.9827 67.1369V67.1676C94.9827 68.3046 95.7719 69.1651 96.8647 69.1651C97.3504 69.1651 97.8057 69.0422 98.1396 68.7963V67.9051H97.229C96.8951 67.9051 96.6219 67.6593 96.6219 67.3213C96.6219 66.9832 96.8951 66.7066 97.229 66.7066H98.7771C99.1717 66.7066 99.4449 67.014 99.4449 67.3827V68.9193C99.4449 69.3188 99.2931 69.5953 98.9592 69.8104C98.4432 70.1177 97.7146 70.4251 96.804 70.4251C94.8916 70.3943 93.5863 69.0114 93.5863 67.1676Z" fill="#0F173A"/>
<path d="M101.6 69.5949V64.7088C101.6 64.3093 101.904 64.0327 102.268 64.0327H105.698C106.032 64.0327 106.305 64.3093 106.305 64.6473C106.305 64.9854 106.032 65.2619 105.698 65.2619H102.936V66.5219H105.304C105.638 66.5219 105.911 66.7985 105.911 67.1365C105.911 67.4745 105.638 67.7511 105.304 67.7511H102.936V69.0725H105.729C106.062 69.0725 106.336 69.3491 106.336 69.6871C106.336 70.0252 106.062 70.3017 105.729 70.3017H102.238C101.904 70.271 101.6 69.9637 101.6 69.5949Z" fill="#0F173A"/>
<path d="M108.339 64.678C108.339 64.2785 108.642 64.002 109.007 64.002H109.158C109.492 64.002 109.674 64.1556 109.857 64.4015L112.497 67.9047V64.678C112.497 64.3093 112.801 64.002 113.165 64.002C113.53 64.002 113.833 64.3093 113.833 64.678V69.6564C113.833 70.0559 113.53 70.3325 113.165 70.3325H113.135C112.801 70.3325 112.619 70.1788 112.437 69.933L109.705 66.3068V69.6564C109.705 70.0252 109.401 70.3325 109.037 70.3325C108.673 70.3325 108.369 70.0252 108.369 69.6564V64.678H108.339Z" fill="#0F173A"/>
<path d="M116.201 64.6478C116.201 64.2483 116.505 63.9717 116.869 63.9717C117.264 63.9717 117.537 64.279 117.537 64.6478V69.6569C117.537 70.0564 117.233 70.3329 116.869 70.3329C116.474 70.3329 116.201 70.0256 116.201 69.6569V64.6478Z" fill="#0F173A"/>
<path d="M119.813 67.5979V64.6478C119.813 64.2483 120.117 63.9717 120.481 63.9717C120.876 63.9717 121.149 64.279 121.149 64.6478V67.5672C121.149 68.5813 121.665 69.1037 122.485 69.1037C123.304 69.1037 123.82 68.5813 123.82 67.5979V64.6478C123.82 64.2483 124.124 63.9717 124.488 63.9717C124.852 63.9717 125.156 64.279 125.156 64.6478V67.5364C125.156 69.4417 124.094 70.3636 122.454 70.3636C120.815 70.3636 119.813 69.4417 119.813 67.5979Z" fill="#0F173A"/>
<path d="M127.312 69.6261C127.16 69.5339 127.069 69.3188 127.069 69.1037C127.069 68.7349 127.342 68.4583 127.706 68.4583C127.888 68.4583 128.01 68.5198 128.101 68.5812C128.556 68.9193 129.072 69.1344 129.679 69.1344C130.226 69.1344 130.56 68.9193 130.56 68.5505V68.5198C130.56 68.1817 130.347 67.9973 129.315 67.7208C128.07 67.4135 127.251 67.0447 127.251 65.8155V65.7847C127.251 64.6477 128.162 63.9102 129.406 63.9102C130.165 63.9102 130.802 64.0945 131.379 64.4633C131.531 64.5555 131.683 64.7399 131.683 65.0165C131.683 65.3852 131.41 65.6618 131.045 65.6618C130.924 65.6618 130.802 65.6311 130.711 65.5696C130.256 65.293 129.831 65.1394 129.406 65.1394C128.89 65.1394 128.617 65.3852 128.617 65.6925V65.7233C128.617 66.1228 128.89 66.2764 129.952 66.553C131.197 66.891 131.926 67.352 131.926 68.4276V68.4583C131.926 69.7183 130.985 70.3943 129.649 70.3943C128.829 70.3636 127.979 70.1178 127.312 69.6261Z" fill="#0F173A"/>
<path d="M137.419 64.6478C137.419 64.2483 137.723 63.9717 138.087 63.9717C138.482 63.9717 138.755 64.279 138.755 64.6478V69.6569C138.755 70.0564 138.452 70.3329 138.087 70.3329C137.693 70.3329 137.419 70.0256 137.419 69.6569V64.6478Z" fill="#0F173A"/>
<path d="M141.154 64.678C141.154 64.2785 141.457 64.002 141.821 64.002H141.973C142.307 64.002 142.489 64.1556 142.671 64.4015L145.312 67.9047V64.678C145.312 64.3093 145.616 64.002 145.98 64.002C146.344 64.002 146.648 64.3093 146.648 64.678V69.6564C146.648 70.0559 146.344 70.3325 145.98 70.3325H145.95C145.616 70.3325 145.434 70.1788 145.252 69.933L142.52 66.3068V69.6564C142.52 70.0252 142.216 70.3325 141.852 70.3325C141.487 70.3325 141.184 70.0252 141.184 69.6564V64.678H141.154Z" fill="#0F173A"/>
<path d="M154.054 67.8745L152.051 65.1394C151.96 65.0165 151.869 64.8321 151.869 64.6478C151.869 64.279 152.172 63.9717 152.537 63.9717C152.84 63.9717 153.053 64.1561 153.205 64.4019L154.722 66.5838L156.24 64.3712C156.422 64.1253 156.604 63.9717 156.908 63.9717C157.333 63.9717 157.576 64.279 157.576 64.6478C157.576 64.8321 157.485 65.0165 157.394 65.1394L155.39 67.8745V69.6876C155.39 70.0871 155.087 70.3636 154.722 70.3636C154.328 70.3636 154.054 70.0563 154.054 69.6876V67.8745Z" fill="#0F173A"/>
<path d="M158.729 67.1676C158.729 65.3545 160.126 63.9102 162.038 63.9102C163.951 63.9102 165.317 65.3545 165.317 67.1369V67.1676C165.317 68.95 163.92 70.3943 162.008 70.3943C160.095 70.3943 158.729 68.95 158.729 67.1676ZM163.89 67.1676C163.89 66.0613 163.101 65.1701 162.008 65.1701C160.915 65.1701 160.156 66.0613 160.156 67.1369V67.1676C160.156 68.2432 160.945 69.1344 162.038 69.1344C163.131 69.1344 163.89 68.2432 163.89 67.1676Z" fill="#0F173A"/>
<path d="M167.259 67.5979V64.6478C167.259 64.2483 167.563 63.9717 167.927 63.9717C168.291 63.9717 168.595 64.279 168.595 64.6478V67.5672C168.595 68.5813 169.111 69.1037 169.931 69.1037C170.75 69.1037 171.266 68.5813 171.266 67.5979V64.6478C171.266 64.2483 171.57 63.9717 171.934 63.9717C172.329 63.9717 172.602 64.279 172.602 64.6478V67.5364C172.602 69.4417 171.54 70.3636 169.9 70.3636C168.261 70.3636 167.259 69.4417 167.259 67.5979Z" fill="#0F173A"/>
<path d="M0.941284 28.6929C0.941284 27.8939 1.5484 27.2793 2.30728 27.2793C3.09653 27.2793 3.70364 27.8939 3.70364 28.6929V38.9262C5.19106 36.6829 7.37667 34.7776 10.7765 34.7776C15.2084 34.7776 19.61 38.3116 19.61 44.4577V44.5192C19.61 50.6346 15.2388 54.2608 10.7765 54.2608C7.34631 54.2608 5.13035 52.3862 3.70364 50.2965V52.6321C3.70364 53.4003 3.12689 54.0457 2.33764 54.0457C1.5484 54.0457 0.941284 53.4003 0.941284 52.6321V28.6929ZM16.7565 44.5806V44.5192C16.7565 40.094 13.7513 37.2975 10.2604 37.2975C6.83027 37.2975 3.58222 40.2169 3.58222 44.4884V44.5499C3.58222 48.8829 6.83027 51.7716 10.2604 51.7716C13.812 51.7716 16.7565 49.098 16.7565 44.5806Z" fill="#00ADEE"/>
<path d="M10.7459 54.752C8.13528 54.752 5.91932 53.7379 4.1587 51.7096V52.6623C4.1587 53.7379 3.3391 54.5676 2.33737 54.5676C1.30528 54.5676 0.455322 53.7071 0.455322 52.6623V28.6924C0.455322 27.6168 1.27492 26.7871 2.27666 26.7871C3.3391 26.7871 4.1587 27.6168 4.1587 28.6924V37.4814C5.94968 35.3302 8.13528 34.2854 10.7459 34.2854C15.2688 34.2854 20.0347 37.8501 20.0347 44.4572V44.5187C20.065 51.1872 15.2688 54.752 10.7459 54.752ZM3.21768 48.7595L4.09799 50.0502C5.7979 52.5394 8.04421 53.83 10.7762 53.83C14.8135 53.83 19.124 50.6033 19.124 44.5801V44.5187C19.124 40.0627 16.2099 35.2995 10.7762 35.2995C8.07457 35.2995 5.88897 36.5902 4.09799 39.233L3.21768 40.5237V28.6924C3.21768 28.17 2.82306 27.7705 2.30701 27.7705C1.82132 27.7705 1.4267 28.17 1.4267 28.6924V52.6316C1.4267 53.154 1.85168 53.5535 2.33737 53.5535C2.82306 53.5535 3.21768 53.154 3.21768 52.6316V48.7595ZM10.2602 52.2628C6.73892 52.2628 3.09626 49.3741 3.09626 44.5494V44.4879C3.09626 42.3675 3.8855 40.4008 5.28186 38.9564C6.6175 37.6043 8.43884 36.8053 10.2602 36.8053C14.2367 36.8053 17.2419 40.1242 17.2419 44.5187V44.5801C17.2419 49.0975 14.3582 52.2628 10.2602 52.2628ZM10.2602 37.7579C6.43537 37.7579 4.06763 41.2305 4.06763 44.4572V44.5187C4.06763 48.7288 7.22461 51.2794 10.2602 51.2794C13.8118 51.2794 16.2706 48.5137 16.2706 44.5801V44.5187C16.2706 40.5852 13.7511 37.7579 10.2602 37.7579Z" fill="#00ADEE"/>
<path d="M31.2966 54.322C26.2272 54.322 22.0685 50.3885 22.0685 44.5804V44.5189C22.0685 39.1411 25.8326 34.7773 30.9323 34.7773C36.3963 34.7773 39.4926 39.2947 39.4926 44.2424C39.4926 45.0106 38.8855 45.5331 38.2176 45.5331H24.8612C25.2558 49.5895 28.0789 51.8636 31.3573 51.8636C33.634 51.8636 35.3339 50.9724 36.6695 49.6817C36.882 49.4973 37.1248 49.3436 37.4588 49.3436C38.1266 49.3436 38.673 49.8968 38.673 50.5421C38.673 50.8802 38.5212 51.1875 38.248 51.4333C36.5177 53.185 34.4232 54.322 31.2966 54.322ZM36.7606 43.5048C36.4874 40.0937 34.5446 37.1436 30.8716 37.1436C27.6539 37.1436 25.2255 39.8479 24.8612 43.5048H36.7606Z" fill="#00ADEE"/>
<path d="M31.2966 54.7825C25.7719 54.7825 21.6132 50.388 21.6132 44.5799V44.5185C21.6132 38.8026 25.7112 34.3159 30.9627 34.3159C36.9124 34.3159 40.0086 39.325 40.0086 44.2726C40.0086 45.256 39.2194 46.055 38.248 46.055H25.4076C25.9236 49.2817 28.261 51.4329 31.3573 51.4329C33.2697 51.4329 34.8482 50.7875 36.366 49.4046C36.7302 49.0973 37.0945 48.9437 37.4891 48.9437C38.4301 48.9437 39.189 49.6812 39.189 50.6339C39.189 51.1256 38.9765 51.5558 38.6123 51.8938C36.4874 53.8913 34.2411 54.7825 31.2966 54.7825ZM30.9323 35.2686C26.1665 35.2686 22.5542 39.2328 22.5542 44.5185V44.5799C22.5542 49.8656 26.3183 53.8298 31.2966 53.8298C33.9679 53.8298 36.0321 53.0001 37.9445 51.1563C38.1266 51.0026 38.2177 50.7875 38.2177 50.6031C38.2177 50.2036 37.8837 49.8963 37.4891 49.8963C37.3373 49.8963 37.1856 49.9578 37.0034 50.1114C35.3642 51.648 33.5125 52.3855 31.3877 52.3855C27.5932 52.3855 24.8005 49.6812 24.4059 45.6248L24.3452 45.1024H38.2177C38.6123 45.1024 39.0373 44.795 39.0373 44.2726C39.0373 39.786 36.2445 35.2686 30.9323 35.2686ZM37.2766 43.9653H24.3452L24.4059 43.4429C24.8005 39.4479 27.4718 36.6514 30.8716 36.6514C34.3929 36.6514 36.882 39.325 37.2463 43.4429L37.2766 43.9653ZM25.4076 43.0127H36.2142C35.8499 40.3084 34.2714 37.6041 30.8413 37.6041C28.1093 37.6041 25.9236 39.8167 25.4076 43.0127Z" fill="#00ADEE"/>
<path d="M92.1594 48.4526V48.3911C92.1594 44.4576 95.3771 42.3372 100.052 42.3372C102.42 42.3372 104.089 42.6753 105.728 43.1362V42.4909C105.728 39.1412 103.695 37.3896 100.234 37.3896C98.3823 37.3896 96.8038 37.8198 95.4378 38.4344C95.2557 38.4959 95.0736 38.5574 94.9521 38.5574C94.3147 38.5574 93.7379 38.0042 93.7379 37.3589C93.7379 36.775 94.1325 36.3448 94.4968 36.1911C96.3181 35.3921 98.1698 34.9312 100.538 34.9312C103.148 34.9312 105.152 35.6072 106.518 36.9901C107.762 38.2501 108.4 40.0632 108.4 42.4601V52.6934C108.4 53.4924 107.823 54.0763 107.064 54.0763C106.275 54.0763 105.728 53.4924 105.728 52.7856V51.0954C104.453 52.7856 102.298 54.3221 99.0501 54.3221C95.6503 54.2607 92.1594 52.2939 92.1594 48.4526ZM105.789 47.0083V45.1952C104.423 44.7957 102.602 44.3962 100.355 44.3962C96.8949 44.3962 94.9521 45.902 94.9521 48.2682V48.3297C94.9521 50.6652 97.1074 52.0481 99.5965 52.0481C102.996 52.0788 105.789 49.9584 105.789 47.0083Z" fill="#00ADEE"/>
<path d="M99.0806 54.7519C95.4076 54.7519 91.7042 52.6008 91.7042 48.4522V48.3907C91.7042 44.365 94.9219 41.8758 100.082 41.8758C102.329 41.8758 103.968 42.1831 105.273 42.5211V42.4904C105.273 38.6798 102.541 37.8808 100.234 37.8808C98.6253 37.8808 97.1379 38.2189 95.6504 38.8949C95.4076 38.9871 95.1648 39.0486 94.9523 39.0486C94.0416 39.0486 93.2524 38.2803 93.2524 37.3584C93.2524 36.5594 93.7988 35.9448 94.3148 35.7604C96.379 34.8692 98.2914 34.4697 100.538 34.4697C103.27 34.4697 105.395 35.2073 106.852 36.6823C108.187 38.0345 108.885 40.0012 108.885 42.4904V52.7237C108.885 53.7686 108.127 54.5675 107.095 54.5675C106.062 54.5675 105.304 53.7993 105.304 52.7852V52.3549C103.998 53.5842 102.025 54.7519 99.0806 54.7519ZM100.082 42.8285C95.438 42.8285 92.6756 44.9181 92.6756 48.3907V48.4522C92.6756 51.9554 95.8933 53.7993 99.0806 53.7993C102.389 53.7993 104.332 52.1398 105.395 50.757L106.245 49.6199V52.7544C106.245 53.2461 106.578 53.5842 107.095 53.5842C107.58 53.5842 107.944 53.2154 107.944 52.693V42.4597C107.944 40.2471 107.368 38.5262 106.184 37.3277C104.939 36.0677 103.027 35.4224 100.568 35.4224C98.4735 35.4224 96.6522 35.7911 94.7094 36.6516C94.5273 36.7131 94.2541 36.9896 94.2541 37.3584C94.2541 37.7272 94.6184 38.0652 94.9826 38.0652C95.0737 38.0652 95.1951 38.0345 95.3165 38.0037C96.9254 37.2662 98.5342 36.9282 100.295 36.9282C104.089 36.9282 106.275 38.9564 106.275 42.5211V43.8118L105.668 43.6274C104.211 43.1972 102.541 42.8285 100.082 42.8285ZM99.5967 52.5393C96.6218 52.5393 94.4666 50.757 94.4666 48.3292V48.2678C94.4666 45.5942 96.7129 43.904 100.325 43.904C102.207 43.904 104.029 44.1806 105.88 44.7338L106.214 44.8259V47.0078C106.245 50.1731 103.391 52.5393 99.5967 52.5393ZM100.356 44.8874C97.2896 44.8874 95.438 46.1474 95.438 48.2678V48.3292C95.438 50.5418 97.5932 51.5559 99.5967 51.5559C102.845 51.5559 105.304 49.5892 105.304 46.9771V45.5327C103.634 45.1025 102.025 44.8874 100.356 44.8874Z" fill="#00ADEE"/>
<path d="M113.074 28.6929C113.074 27.9246 113.681 27.2793 114.44 27.2793C115.229 27.2793 115.836 27.9246 115.836 28.6929V52.632C115.836 53.431 115.26 54.0456 114.47 54.0456C113.681 54.0456 113.074 53.431 113.074 52.632V28.6929Z" fill="#00ADEE"/>
<path d="M114.471 54.5368C113.408 54.5368 112.589 53.7071 112.589 52.6316V28.6924C112.589 27.6476 113.408 26.7871 114.41 26.7871C115.442 26.7871 116.292 27.6476 116.292 28.6924V52.6316C116.292 53.7379 115.503 54.5368 114.471 54.5368ZM114.44 27.7705C113.955 27.7705 113.56 28.2007 113.56 28.6924V52.6316C113.56 53.154 113.955 53.5535 114.471 53.5535C114.987 53.5535 115.351 53.154 115.351 52.6316V28.6924C115.351 28.2007 114.926 27.7705 114.44 27.7705Z" fill="#00ADEE"/>
<path d="M120.784 29.3081C120.784 28.4169 121.513 27.833 122.393 27.833C123.334 27.833 124.032 28.4169 124.032 29.3081V29.769C124.032 30.6295 123.304 31.2441 122.393 31.2441C121.513 31.2441 120.784 30.6295 120.784 29.769V29.3081ZM121.027 36.4068C121.027 35.6386 121.634 34.9932 122.393 34.9932C123.182 34.9932 123.79 35.6079 123.79 36.4068V52.6326C123.79 53.4316 123.213 54.0462 122.424 54.0462C121.634 54.0462 121.027 53.4316 121.027 52.6326V36.4068Z" fill="#00ADEE"/>
<path d="M122.424 54.5369C121.361 54.5369 120.542 53.7072 120.542 52.6316V36.4059C120.542 35.361 121.361 34.5006 122.363 34.5006C123.426 34.5006 124.245 35.3303 124.245 36.4059V52.6316C124.276 53.7379 123.486 54.5369 122.424 54.5369ZM122.393 35.484C121.908 35.484 121.513 35.9142 121.513 36.4059V52.6316C121.513 53.1541 121.908 53.5536 122.424 53.5536C122.94 53.5536 123.304 53.1541 123.304 52.6316V36.4059C123.304 35.8835 122.91 35.484 122.393 35.484ZM122.393 31.7656C121.21 31.7656 120.299 30.9358 120.299 29.7988V29.3378C120.299 28.2008 121.179 27.3711 122.393 27.3711C123.608 27.3711 124.518 28.2008 124.518 29.3378V29.7988C124.518 30.9051 123.608 31.7656 122.393 31.7656ZM122.393 28.3237C121.817 28.3237 121.27 28.631 121.27 29.3378V29.7988C121.27 30.3827 121.756 30.8129 122.393 30.8129C123.061 30.8129 123.547 30.3827 123.547 29.7988V29.3378C123.547 28.631 122.97 28.3237 122.393 28.3237Z" fill="#00ADEE"/>
<path d="M129.011 28.6929C129.011 27.9246 129.618 27.2793 130.377 27.2793C131.167 27.2793 131.774 27.9246 131.774 28.6929V52.632C131.774 53.431 131.197 54.0456 130.408 54.0456C129.618 54.0456 129.011 53.431 129.011 52.632V28.6929Z" fill="#00ADEE"/>
<path d="M130.377 54.5368C129.315 54.5368 128.495 53.7071 128.495 52.6316V28.6924C128.495 27.6476 129.315 26.7871 130.317 26.7871C131.349 26.7871 132.199 27.6476 132.199 28.6924V52.6316C132.229 53.7379 131.44 54.5368 130.377 54.5368ZM130.347 27.7705C129.861 27.7705 129.467 28.2007 129.467 28.6924V52.6316C129.467 53.154 129.861 53.5535 130.377 53.5535C130.893 53.5535 131.258 53.154 131.258 52.6316V28.6924C131.258 28.2007 130.863 27.7705 130.347 27.7705Z" fill="#00ADEE"/>
<path d="M144.796 54.322C139.726 54.322 135.568 50.3885 135.568 44.5804V44.5189C135.568 39.1411 139.332 34.7773 144.431 34.7773C149.895 34.7773 152.992 39.2947 152.992 44.2424C152.992 45.0106 152.385 45.5331 151.717 45.5331H138.36C138.755 49.5895 141.578 51.8636 144.856 51.8636C147.133 51.8636 148.833 50.9724 150.169 49.6817C150.381 49.4973 150.624 49.3436 150.958 49.3436C151.626 49.3436 152.172 49.8968 152.172 50.5421C152.172 50.8802 152.02 51.1875 151.747 51.4333C149.987 53.185 147.922 54.322 144.796 54.322ZM150.26 43.5048C149.987 40.0937 148.044 37.1436 144.371 37.1436C141.153 37.1436 138.725 39.8479 138.36 43.5048H150.26Z" fill="#00ADEE"/>
<path d="M144.796 54.7825C139.271 54.7825 135.112 50.388 135.112 44.5799V44.5185C135.112 38.8026 139.21 34.3159 144.462 34.3159C150.412 34.3159 153.508 39.325 153.508 44.2726C153.508 45.256 152.719 46.055 151.747 46.055H138.937C139.453 49.2817 141.791 51.4329 144.887 51.4329C146.799 51.4329 148.378 50.7875 149.896 49.4046C150.26 49.0973 150.624 48.9437 151.019 48.9437C151.96 48.9437 152.719 49.6812 152.719 50.6339C152.719 51.1256 152.506 51.5558 152.142 51.8938C149.987 53.8913 147.74 54.7825 144.796 54.7825ZM144.432 35.2686C139.666 35.2686 136.053 39.2328 136.053 44.5185V44.5799C136.053 49.8656 139.818 53.8298 144.796 53.8298C147.467 53.8298 149.531 53.0001 151.444 51.1563C151.626 51.0026 151.717 50.7875 151.717 50.6031C151.717 50.2036 151.383 49.8963 150.988 49.8963C150.837 49.8963 150.685 49.9578 150.503 50.1114C148.864 51.648 147.012 52.3855 144.887 52.3855C141.092 52.3855 138.3 49.6812 137.905 45.6248L137.844 45.1024H151.717C152.112 45.1024 152.537 44.795 152.537 44.2726C152.537 39.786 149.744 35.2686 144.432 35.2686ZM150.776 43.9653H137.844L137.905 43.4429C138.3 39.4479 140.971 36.6514 144.371 36.6514C147.892 36.6514 150.381 39.325 150.746 43.4429L150.776 43.9653ZM138.907 43.0127H149.713C149.349 40.3084 147.771 37.6041 144.341 37.6041C141.609 37.6041 139.393 39.8167 138.907 43.0127Z" fill="#00ADEE"/>
<path d="M155.3 44.6111V44.5497C155.3 39.264 159.367 34.7773 164.953 34.7773C170.477 34.7773 174.575 39.2025 174.575 44.4575V44.5189C174.575 49.8046 170.477 54.2913 164.892 54.2913C159.337 54.322 155.3 49.8968 155.3 44.6111ZM171.722 44.6111V44.5497C171.722 40.524 168.747 37.2358 164.862 37.2358C160.855 37.2358 158.123 40.524 158.123 44.4575V44.5189C158.123 48.5447 161.037 51.8021 164.953 51.8021C168.929 51.8021 171.722 48.5447 171.722 44.6111Z" fill="#00ADEE"/>
<path d="M164.861 54.7825C159.215 54.7825 154.814 50.3266 154.814 44.6107V44.5492C154.814 38.8026 159.246 34.3159 164.922 34.3159C170.568 34.3159 175 38.7719 175 44.4877V44.5492C175.03 50.2958 170.568 54.7825 164.861 54.7825ZM164.922 35.2686C159.792 35.2686 155.755 39.3557 155.755 44.5492V44.6107C155.755 49.7734 159.762 53.8298 164.861 53.8298C170.022 53.8298 174.059 49.7427 174.059 44.5492V44.4877C174.059 39.2943 170.052 35.2686 164.922 35.2686ZM164.922 52.2933C160.824 52.2933 157.637 48.8822 157.637 44.5492V44.4877C157.637 40.0933 160.733 36.7744 164.861 36.7744C168.959 36.7744 172.207 40.1855 172.207 44.5492V44.6107C172.207 49.0051 169.081 52.2933 164.922 52.2933ZM164.861 37.727C161.279 37.727 158.578 40.6157 158.578 44.4877V44.5492C158.578 48.3598 161.37 51.3407 164.922 51.3407C168.534 51.3407 171.236 48.452 171.236 44.6414V44.5799C171.236 40.7079 168.443 37.727 164.861 37.727Z" fill="#00ADEE"/>
<path d="M83.7132 13.0992C81.0723 10.5485 77.8546 8.5203 74.1209 7.29107C61.3108 3.05025 46.8616 10.2719 42.4297 23.1481C37.1478 38.4519 47.1044 55.3537 64.1035 57.0747C73.5441 58.0273 82.7115 53.3563 87.6594 45.1819C91.9396 38.1139 92.4556 30.2161 90.1486 23.3632L76.2761 30.3083C76.4582 31.8141 76.3368 33.4121 75.7904 34.9486C74.0298 40.0806 68.5051 42.9386 63.375 41.402C57.8503 39.7426 54.8754 33.7809 56.6968 28.3415C58.3967 23.2403 63.7696 20.1979 69.4461 21.9496C70.0229 22.134 70.6603 22.0725 71.2067 21.7959L83.2882 15.7727C84.29 15.2196 84.5025 13.8674 83.7132 13.0992Z" fill="#66CDF5"/>
<mask id="mask0" mask-type="alpha" maskUnits="userSpaceOnUse" x="41" y="6" width="51" height="52">
<path d="M83.7132 13.0992C81.0723 10.5485 77.8546 8.5203 74.1209 7.29107C61.3108 3.05025 46.8616 10.2719 42.4297 23.1481C37.1478 38.4519 47.1044 55.3537 64.1035 57.0747C73.5441 58.0273 82.7115 53.3563 87.6594 45.1819C91.9396 38.1139 92.4556 30.2161 90.1486 23.3632L76.2761 30.3083C76.4582 31.8141 76.3368 33.4121 75.7904 34.9486C74.0298 40.0806 68.5051 42.9386 63.375 41.402C57.8503 39.7426 54.8754 33.7809 56.6968 28.3415C58.3967 23.2403 63.7696 20.1979 69.4461 21.9496C70.0229 22.134 70.6603 22.0725 71.2067 21.7959L83.2882 15.7727C84.29 15.2196 84.5025 13.8674 83.7132 13.0992Z" fill="#66CDF5"/>
</mask>
<g mask="url(#mask0)">
<path fill-rule="evenodd" clip-rule="evenodd" d="M43.3399 18.0598C43.3399 20.887 41.9132 27.0024 44.9184 28.1702C47.5897 29.2457 50.2913 27.7399 51.5966 25.3429C54.0858 20.8563 56.15 18.0905 61.7961 19.5041C63.6478 19.9651 64.3763 21.0099 65.9244 22.0548C67.5029 23.1303 69.0511 23.2533 70.9028 23.3147C74.0294 23.4376 77.6417 22.7616 80.2523 21.0714C82.5593 19.5656 86.1109 17.8447 86.3537 14.8638C86.5359 12.7434 86.4752 8.77913 84.8967 7.33479C83.4093 5.98265 80.7683 5.61388 78.8863 5.09146C74.6669 3.95443 70.4778 3.18616 66.1066 2.94032C60.3087 2.60228 54.6929 3.1247 48.986 4.04662C46.5576 4.44612 42.7935 4.38466 40.79 6.10557C38.3919 8.16452 36.5403 14.9253 39.3633 17.1071C40.4865 17.9983 42.1257 17.5066 43.3399 18.0598Z" fill="#86C440"/>
<path fill-rule="evenodd" clip-rule="evenodd" d="M41.9136 33.9473C42.6725 33.8243 43.5528 33.9473 44.342 34.1624C46.7401 34.8077 48.1061 36.1906 49.29 38.3725C50.1096 39.8783 50.5346 41.5377 50.7774 43.2279C51.3542 47.2536 55.3611 50.5418 54.6022 54.9055C54.3594 56.1962 53.2058 58.0401 51.5363 57.7635C50.2006 57.5484 49.1989 55.3972 48.5311 54.2909C46.1937 50.5418 43.1885 46.7005 41.3368 42.6748C40.4869 40.8309 39.7887 38.0652 40.0315 36.037C40.1529 34.6848 40.9422 34.1317 41.9136 33.9473Z" fill="#00ADEE"/>
<path fill-rule="evenodd" clip-rule="evenodd" d="M67.8372 69.7793C62.3732 66.8599 51.9612 62.0967 56.636 53.6765C58.6091 50.1117 61.6446 50.7264 65.2266 50.7264C72.4816 50.7264 75.0922 45.9938 77.0046 39.7555C78.4009 35.2074 82.8025 31.151 87.5683 34.4084C93.8216 38.68 90.3914 51.1566 87.4165 56.0735C85.0792 59.9148 82.8025 63.9405 79.008 66.3682C76.7921 67.8126 69.1425 71.6539 67.8372 69.7793Z" fill="#00ADEE"/>
<path fill-rule="evenodd" clip-rule="evenodd" d="M81.1328 25.5884C81.5274 26.2031 82.256 26.8484 82.5595 27.5552C83.0452 28.7537 82.4077 29.9215 82.5292 31.0892C82.6809 32.5336 82.6506 32.9331 84.3505 32.9023C87.2039 32.8409 87.6896 30.5053 89.1163 33.7628C89.6324 34.8998 89.4806 35.9447 91.1805 35.9139C92.4554 35.9139 93.5786 34.5003 93.8822 33.5169C94.55 31.3043 94.4286 26.3567 92.4858 24.8816C89.4806 22.6383 83.2577 24.2056 81.1328 25.5884Z" fill="#86C440"/>
<path fill-rule="evenodd" clip-rule="evenodd" d="M39.9399 13.6959C45.3736 13.573 49.0466 11.4218 54.1767 13.6344C57.3033 14.9866 60.8853 17.1377 64.4976 16.1236C66.1064 15.6627 66.5618 14.4027 67.8671 13.7266C69.4152 12.9276 70.8723 13.573 72.6632 13.112C77.4291 11.8521 81.1021 4.47672 74.2721 2.66362C68.292 1.09635 59.3068 1.92608 53.1446 3.15531C49.6841 3.83138 46.4664 5.36791 43.8558 7.73417C41.822 9.57801 40.6078 11.9135 39.9399 13.6959Z" fill="#71B444"/>
<path fill-rule="evenodd" clip-rule="evenodd" d="M45.0703 54.5985C49.138 52.4781 50.5343 44.3038 56.3929 45.7481C57.6982 46.0554 58.5482 47.3154 59.8535 47.592C61.3713 47.8993 62.4337 47.0695 63.7693 46.9159C67.9281 46.4549 63.9515 60.8368 58.6696 61.3593C54.1466 61.8202 46.6488 59.4847 45.0703 54.5985Z" fill="#86C440"/>
<path fill-rule="evenodd" clip-rule="evenodd" d="M62.6463 61.113C62.2517 59.3306 60.8554 57.4561 60.0358 55.8274C59.2769 54.3216 59.0037 52.5699 58.2448 51.1256C57.0002 48.7593 54.1164 48.9437 52.4772 50.9412C50.0791 53.7991 48.8953 57.0258 52.7504 59.0541C55.4521 60.4984 59.5501 60.8672 62.6463 61.113Z" fill="#71B444"/>
</g>
<path fill-rule="evenodd" clip-rule="evenodd" d="M125.004 6.35147C123.395 2.38722 120.451 -0.132692 118.478 0.697035L116.596 1.4653L117.021 2.47941C116.474 4.16959 116.717 6.75097 117.779 9.36307C118.842 11.9752 120.481 13.9727 122.06 14.7717L122.485 15.7858L124.336 15.0175C126.309 14.1878 126.613 10.3157 125.004 6.35147Z" fill="#86C440"/>
<path d="M122.488 15.8126C124.469 14.9791 124.762 11.1014 123.141 7.15166C121.52 3.20189 118.599 0.675703 116.617 1.50926C114.635 2.34282 114.343 6.22047 115.964 10.1702C117.585 14.12 120.506 16.6462 122.488 15.8126Z" fill="#629B35"/>
<path fill-rule="evenodd" clip-rule="evenodd" d="M121.331 14.2185L95.2253 25.1893L91.0969 15.1096L116.93 3.49348C116.93 3.49348 119.904 2.8174 121.847 7.98015C123.79 13.1736 121.331 14.2185 121.331 14.2185Z" fill="#86C440"/>
<path fill-rule="evenodd" clip-rule="evenodd" d="M71.3056 32.8717L70.486 33.1483L68.8164 28.508L69.4539 28.1699L71.3056 32.8717Z" fill="#808184"/>
<path d="M95.2362 25.2071C97.1251 24.4126 97.7281 21.5069 96.5831 18.717C95.438 15.9271 92.9786 14.3095 91.0897 15.1039C89.2009 15.8984 88.5979 18.8042 89.7429 21.5941C90.8879 24.384 93.3474 26.0016 95.2362 25.2071Z" fill="#629B35"/>
<path fill-rule="evenodd" clip-rule="evenodd" d="M91.0972 16.7693L68.5127 28.6313L70.2126 33.2716L94.2239 24.4212C95.8631 23.3149 95.7113 21.5325 94.9524 19.6272C94.1328 17.7527 93.0096 16.3698 91.0972 16.7693Z" fill="#86C440"/>
<path d="M70.1816 33.2778C70.4491 33.1783 70.2853 32.052 69.8157 30.762C69.3461 29.4721 68.7485 28.507 68.481 28.6065C68.2135 28.706 68.3773 29.8323 68.8469 31.1223C69.3165 32.4122 69.9141 33.3773 70.1816 33.2778Z" fill="#629B35"/>
<path fill-rule="evenodd" clip-rule="evenodd" d="M69.5752 31.8887L64.9005 33.8555C64.5969 33.9784 64.2326 33.8247 64.1112 33.5174L63.8077 32.7799C63.6862 32.4726 63.838 32.1038 64.1416 31.9809L68.8163 30.0142L69.5752 31.8887Z" fill="#86C440"/>
</svg>
